/vscmnt/brussel_pixiu_data/_data_brussel/112/vsc11236/PredSimResults/SUBJ09opt3D/trackIG/worker_10.mot
version=1
nRows=4
nColumns=50
inDegrees=yes
endheader
                time	         pelvis_tilt	         pelvis_list	     pelvis_rotation	           pelvis_tx	           pelvis_ty	           pelvis_tz	       hip_flexion_r	     hip_adduction_r	      hip_rotation_r	        knee_angle_r	       ankle_angle_r	         mtp_angle_r	       hip_flexion_l	     hip_adduction_l	      hip_rotation_l	        knee_angle_l	       ankle_angle_l	         mtp_angle_l	    lumbar_extension	      lumbar_bending	     lumbar_rotation	 ercspn_r/activation	 intobl_r/activation	 extobl_r/activation	    abd_r/activation	    add_r/activation	hamstrings_r/activation	bifemsh_r/activation	glut_max_r/activation	iliopsoas_r/activation	rect_fem_r/activation	  vasti_r/activation	gastroc_r/activation	 soleus_r/activation	tib_ant_r/activation	 ercspn_l/activation	 intobl_l/activation	 extobl_l/activation	    abd_l/activation	    add_l/activation	hamstrings_l/activation	bifemsh_l/activation	glut_max_l/activation	iliopsoas_l/activation	rect_fem_l/activation	  vasti_l/activation	gastroc_l/activation	 soleus_l/activation	tib_ant_l/activation	
          0.56780491	         -5.29500840	          2.25025612	         -9.51697691	          0.85170737	          0.97783828	          0.00378181	        -16.30474504	         -3.93426511	         -2.36448158	         -9.13408224	          1.23202289	         40.70102913	         31.99737376	         -1.09023621	         -9.30997441	         -7.38311498	          5.61238006	          0.26181939	        -12.70218898	         -0.97979070	          6.70080257	          0.04667963	          0.00999999	          0.00999999	          0.02209852	          0.08597570	          0.02369735	          0.21614212	          0.01189267	          0.13354877	          0.00999999	          0.00999999	          0.32400122	          0.18362879	          0.01366648	          0.05100761	          0.13599682	          0.01682051	          0.00999999	          0.27719503	          0.08634303	          0.16923465	          0.18169322	          0.14134045	          0.00999999	          0.00999999	          0.02000418	          0.01043782	          0.37813172	
          0.57916101	         -5.26701120	          2.40401325	         -9.51203895	          0.87363912	          0.97542084	          0.00326516	        -16.78826931	         -4.32270368	         -2.85859277	        -10.40899752	         -0.20400007	         42.38188981	         31.98964040	         -0.89229733	         -9.44908862	         -9.60713711	          5.15143713	          0.20999733	        -12.18032346	         -1.39807112	          6.88987401	          0.07270805	          0.00999999	          0.00999999	          0.01858161	          0.07229294	          0.01992599	          0.18174378	          0.00999999	          0.18792389	          0.00999999	          0.00999999	          0.27243745	          0.15440485	          0.01149151	          0.04288991	          0.11435336	          0.01414358	          0.12833887	          0.26986592	          0.08043275	          0.14230149	          0.24046908	          0.11884656	          0.00999999	          0.00999999	          0.01682058	          0.01189267	          0.42845044	
          0.59051711	         -5.22467366	          2.54905881	         -9.46734927	          0.89553811	          0.97336421	          0.00264729	        -16.92286843	         -4.71920469	         -3.36244815	        -12.32534501	         -1.64611725	         43.75625485	         31.91842118	         -0.68242703	         -9.52821587	        -11.73825029	          4.59750864	          0.19576323	        -11.68039520	         -1.80400886	          7.04533656	          0.07656252	          0.00999999	          0.00999999	          0.01562441	          0.06191070	          0.01675483	          0.15281983	          0.00999999	          0.26664368	          0.00999999	          0.00999999	          0.22907989	          0.12983180	          0.00999999	          0.03606412	          0.09615438	          0.01189267	          0.18946966	          0.29685500	          0.06763213	          0.11965465	          0.28647279	          0.09993251	          0.00999999	          0.00999999	          0.01414364	          0.00999999	          0.47885966	
          0.60187320	         -5.16915086	          2.69119080	         -9.38858528	          0.91704206	          0.97187219	          0.00191710	        -16.59311818	         -5.14110963	         -3.87202396	        -15.04488364	         -3.02358649	         44.53497549	         31.94036080	         -0.46213716	         -9.54232488	        -14.01100192	          4.07436374	          0.15304160	        -11.24401883	         -2.20698023	          7.16543645	          0.13180500	          0.00999999	          0.00999999	          0.01313783	          0.13024222	          0.01408835	          0.12849904	          0.00999999	          0.23948088	          0.00999999	          0.00999999	          0.19262255	          0.10916948	          0.00999999	          0.06207492	          0.08085171	          0.00999999	          0.22641826	          0.33301032	          0.05686869	          0.10061199	          0.31672128	          0.08402856	          0.00999999	          0.13379159	          0.01189272	          0.00999999	          0.50249035	
